<?xml version="1.0" encoding="utf-8"?><svg xmlns="http://www.w3.org/2000/svg" xmlns:xlink="http://www.w3.org/1999/xlink" width="1920" height="1008" preserveAspectRatio="xMidYMid" viewBox="0 0 1920 1008" style="z-index:1;display:block;background-color:transparent;animation-play-state:paused" ><g transform="translate(960,504) scale(1,1) translate(-960,-504)" style="transform:matrix(1, 0, 0, 1, 0, 0);animation-play-state:paused" ><linearGradient id="lg-0.3149757188650868" x1="0" x2="1" y1="0" y2="0" style="animation-play-state:paused" ><stop stop-color="#8a2387" offset="0" style="animation-play-state:paused" ></stop>

  
<stop stop-color="#e94057" offset="1" style="animation-play-state:paused" ></stop></linearGradient>
<path d="M 0 0 L 0 827.788 Q 192 928.612 384 881.668 T 768 710.69 T 1152 600.264 T 1536 587.913 T 1920 416.994 L 1920 0 Z" fill="url(#lg-0.3149757188650868)" opacity="0.4" style="opacity:0.4;animation-play-state:paused" ></path>
<path d="M 0 0 L 0 937.43 Q 192 811.232 384 785.174 T 768 754.571 T 1152 600.721 T 1536 546.186 T 1920 438.773 L 1920 0 Z" fill="url(#lg-0.3149757188650868)" opacity="0.4" style="opacity:0.4;animation-play-state:paused" ></path>
<path d="M 0 0 L 0 852.503 Q 192 783.285 384 750.561 T 768 804.402 T 1152 663.854 T 1536 568.038 T 1920 383.593 L 1920 0 Z" fill="url(#lg-0.3149757188650868)" opacity="0.4" style="opacity:0.4;animation-play-state:paused" ></path>
<path d="M 0 0 L 0 992.138 Q 192 881.813 384 851.562 T 768 735.417 T 1152 627.567 T 1536 508.174 T 1920 505.613 L 1920 0 Z" fill="url(#lg-0.3149757188650868)" opacity="0.4" style="opacity:0.4;animation-play-state:paused" ></path>
<path d="M 0 0 L 0 961.263 Q 192 826.416 384 811.518 T 768 761.935 T 1152 614.588 T 1536 564.356 T 1920 364.683 L 1920 0 Z" fill="url(#lg-0.3149757188650868)" opacity="0.4" style="opacity:0.4;animation-play-state:paused" ></path></g></svg>